<svg width="24" height="24" viewBox="0 0 24 24" fill="none" xmlns="http://www.w3.org/2000/svg">
<path fill-rule="evenodd" clip-rule="evenodd" d="M20.9248 0C23.1022 0 23.9567 1.77847 23.9567 3.01865C23.9567 4.25884 23.9567 18.7816 23.9567 20.6421C23.9567 22.393 22.7281 23.9567 20.9248 23.9567C19.1215 23.9567 4.6493 23.9567 2.80929 23.9567C1.38662 23.9567 0 22.5148 0 21.1587C0 19.8026 0 4.03533 0 2.67255C0 1.30978 1.3654 0 2.60956 0C3.85372 0 18.9601 0 20.9248 0Z" fill="url(#paint0_linear_2380_54901)"/>
<mask id="mask0_2380_54901" style="mask-type:alpha" maskUnits="userSpaceOnUse" x="0" y="0" width="24" height="24">
<path fill-rule="evenodd" clip-rule="evenodd" d="M20.9248 0C23.1022 0 23.9567 1.77847 23.9567 3.01865C23.9567 4.25884 23.9567 18.7816 23.9567 20.6421C23.9567 22.393 22.7281 23.9567 20.9248 23.9567C19.1215 23.9567 4.6493 23.9567 2.80929 23.9567C1.38662 23.9567 0 22.5148 0 21.1587C0 19.8026 0 4.03533 0 2.67255C0 1.30978 1.3654 0 2.60956 0C3.85372 0 18.9601 0 20.9248 0Z" fill="white"/>
</mask>
<g mask="url(#mask0_2380_54901)">
<rect width="24" height="24" fill="#D179BD"/>
</g>
<path fill-rule="evenodd" clip-rule="evenodd" d="M8.55459 2C10.1328 2 11.5612 2.57832 12.5933 3.51272C13.4521 2.78995 14.5491 2.35645 15.7443 2.35645C18.4977 2.35645 20.7298 4.65707 20.7298 7.49504C20.7298 8.06386 20.6401 8.61108 20.4746 9.12252C21.4094 10.0659 22 11.4532 22 13C22 15.842 20.0061 18.146 17.5466 18.146C17.4197 18.146 17.294 18.1399 17.1698 18.1278C17.1433 18.1283 17.1168 18.1286 17.0902 18.1286H6.82207C6.70051 18.1401 6.57756 18.146 6.45343 18.146C3.99387 18.146 2 15.842 2 13C2 11.5388 2.52707 10.2198 3.37351 9.28306C3.04061 8.6304 2.85498 7.90404 2.85498 7.1386C2.85498 4.30063 5.40678 2 8.55459 2ZM22.0001 20.9962V19.9962H14.938C14.936 19.4457 14.4891 19 13.938 19H10.0001C9.44906 19 9.00213 19.4457 9.00009 19.9962H2.00009L2.00009 20.9962H9.00009V21.1486C9.00009 21.7008 9.4478 22.1486 10.0001 22.1486H13.938C14.4903 22.1486 14.938 21.7008 14.938 21.1486V20.9962H22.0001ZM16.4758 3.60243C16.1105 3.81329 15.9854 4.2803 16.1963 4.64552L17.978 7.73154C18.1888 8.09676 18.6558 8.2219 19.0211 8.01104C19.3863 7.80018 19.5114 7.33317 19.3006 6.96795L17.5188 3.88192C17.308 3.5167 16.841 3.39157 16.4758 3.60243ZM14.6165 4.56022C14.2513 4.77108 14.1261 5.23809 14.337 5.60331L16.1187 8.68933C16.3296 9.05455 16.7966 9.17969 17.1618 8.96883C17.527 8.75797 17.6521 8.29096 17.4413 7.92574L15.6596 4.83972C15.4487 4.47449 14.9817 4.34936 14.6165 4.56022ZM4.99477 11.645L7.22399 10.358C7.61143 10.1343 7.80316 9.68047 7.69347 9.24675L7.51573 8.544C7.45866 8.31834 7.54892 8.08109 7.74156 7.95043L9.86844 6.72247L9.71706 5.64382C9.65209 5.41671 9.37703 5.04628 8.79649 5.38145L4.99967 7.57355C4.64121 7.78051 4.44794 8.18654 4.51258 8.59537L4.99477 11.645ZM6.23543 8.8859C6.53978 8.71018 6.64406 8.32101 6.46834 8.01666C6.29263 7.7123 5.90345 7.60803 5.5991 7.78374C5.29475 7.95946 5.19047 8.34863 5.36619 8.65298C5.54191 8.95733 5.93108 9.06161 6.23543 8.8859ZM13.5626 11.0152L11.081 6.71703L8.87427 7.99108C8.48089 8.2182 8.29 8.68192 8.40948 9.12015L8.52994 9.56195C8.64942 10.0002 8.45879 10.4638 8.06541 10.6909L5.07017 12.4202C6.28409 14.5227 7.47804 14.5281 8.42699 13.9802L13.5626 11.0152ZM7.75546 12.7911C7.57394 12.4767 7.68166 12.0747 7.99607 11.8932L10.8425 10.2498C11.1569 10.0683 11.5589 10.176 11.7404 10.4904C11.922 10.8048 11.8142 11.2069 11.4998 11.3884L8.65343 13.0317C8.33902 13.2133 7.93699 13.1055 7.75546 12.7911ZM11.8932 6.62021L13.5295 6.48036C13.916 6.44732 14.2868 6.64079 14.4807 6.97673L15.0512 7.96485C15.2436 8.29812 15.2277 8.71225 15.0103 9.02978L14.074 10.3974L11.8932 6.62021ZM9.05093 14.387L11.4842 12.9821C11.7172 13.906 12.2032 15.8364 12.2833 16.1673C12.2953 16.2167 12.3081 16.2638 12.3204 16.3091C12.4112 16.6427 12.4744 16.875 11.9616 17.1711L11.0569 17.6934C10.6923 17.9039 10.1493 17.8985 10.0476 17.4581C9.96619 17.1058 9.34923 15.2639 9.05093 14.387ZM11.3242 15.1544C11.4999 15.4588 11.3957 15.848 11.0913 16.0237C10.787 16.1994 10.3978 16.0951 10.2221 15.7908C10.0463 15.4864 10.1506 15.0972 10.455 14.9215C10.7593 14.7458 11.1485 14.8501 11.3242 15.1544Z" fill="white"/>
<defs>
<linearGradient id="paint0_linear_2380_54901" x1="0" y1="0" x2="0" y2="23.9567" gradientUnits="userSpaceOnUse">
<stop stop-color="#ADADAD" stop-opacity="0.01"/>
<stop offset="1" stop-color="#9D9D9D"/>
</linearGradient>
</defs>
</svg>
