<svg width="24" height="24" viewBox="0 0 24 24" fill="none" xmlns="http://www.w3.org/2000/svg">
<path fill-rule="evenodd" clip-rule="evenodd" d="M20.9248 0C23.1022 0 23.9567 1.77847 23.9567 3.01865C23.9567 4.25884 23.9567 18.7816 23.9567 20.6421C23.9567 22.393 22.7281 23.9567 20.9248 23.9567C19.1215 23.9567 4.6493 23.9567 2.80929 23.9567C1.38662 23.9567 0 22.5148 0 21.1587C0 19.8026 0 4.03533 0 2.67255C0 1.30978 1.3654 0 2.60956 0C3.85372 0 18.9601 0 20.9248 0Z" fill="url(#paint0_linear_2380_54615)"/>
<mask id="mask0_2380_54615" style="mask-type:alpha" maskUnits="userSpaceOnUse" x="0" y="0" width="24" height="24">
<path fill-rule="evenodd" clip-rule="evenodd" d="M20.9248 0C23.1022 0 23.9567 1.77847 23.9567 3.01865C23.9567 4.25884 23.9567 18.7816 23.9567 20.6421C23.9567 22.393 22.7281 23.9567 20.9248 23.9567C19.1215 23.9567 4.6493 23.9567 2.80929 23.9567C1.38662 23.9567 0 22.5148 0 21.1587C0 19.8026 0 4.03533 0 2.67255C0 1.30978 1.3654 0 2.60956 0C3.85372 0 18.9601 0 20.9248 0Z" fill="white"/>
</mask>
<g mask="url(#mask0_2380_54615)">
<rect width="24" height="24" fill="#D179BD"/>
</g>
<path fill-rule="evenodd" clip-rule="evenodd" d="M8.55459 1.92572C10.1328 1.92572 11.5612 2.50404 12.5933 3.43844C13.4521 2.71567 14.5491 2.28217 15.7443 2.28217C18.4977 2.28217 20.7298 4.58279 20.7298 7.42076C20.7298 7.98958 20.6401 8.5368 20.4746 9.04824C21.4094 9.99157 22 11.3789 22 12.9257C22 15.7678 20.0061 18.0717 17.5466 18.0717C17.4197 18.0717 17.294 18.0656 17.1698 18.0536C17.1433 18.0541 17.1168 18.0543 17.0902 18.0543H6.82207C6.70051 18.0658 6.57756 18.0717 6.45343 18.0717C3.99387 18.0717 2 15.7678 2 12.9257C2 11.4645 2.52707 10.1455 3.37351 9.20879C3.04061 8.55612 2.85498 7.82976 2.85498 7.06432C2.85498 4.22635 5.40678 1.92572 8.55459 1.92572ZM22.0001 20.9219V19.9219H14.938C14.936 19.3714 14.4891 18.9257 13.938 18.9257H10.0001C9.44906 18.9257 9.00213 19.3714 9.00009 19.9219H2.00009L2.00009 20.9219H9.00009V21.0743C9.00009 21.6266 9.4478 22.0743 10.0001 22.0743H13.938C14.4903 22.0743 14.938 21.6266 14.938 21.0743V20.9219H22.0001ZM16.0001 7.99999C16.0001 7.4477 15.5524 6.99999 15.0001 6.99999H8.50013C7.94785 6.99999 7.50013 7.4477 7.50013 7.99999V14H16.0001V12.5031H16V8.0031H16.0001V7.99999ZM17.0001 14V12.5031L18.5001 12.5031C19.0524 12.5031 19.5001 12.0554 19.5001 11.5031V9.0031C19.5001 8.45081 19.0524 8.0031 18.5001 8.0031H17.0001V6.99999C17.0001 6.4477 16.5524 5.99999 16.0001 5.99999H7.50013C6.94785 5.99999 6.50013 6.4477 6.50013 6.99999V8.0031H4.9889C4.43662 8.0031 3.9889 8.45081 3.9889 9.0031V11.5031C3.9889 12.0554 4.43662 12.5031 4.9889 12.5031H6.50013V14C6.50013 14.5523 6.94785 15 7.50013 15H16.0001C16.5524 15 17.0001 14.5523 17.0001 14ZM18.5001 11.5031H17.0001V9.0031H18.5001V11.5031ZM9.9512 16.9914C9.8781 16.9914 9.80738 16.9938 9.73972 16.996C9.30718 17.0102 9.00013 17.0203 9.00013 16.3913L9.00014 15.5L16.0001 15.5V16.3913C16.0001 17.0178 15.6547 17.0103 15.0057 16.9962H15.0056C14.9011 16.9939 14.7887 16.9915 14.6685 16.9915L9.9512 16.9914ZM4.9889 9.0031H6.48902V11.5031H4.9889V9.0031ZM10.5001 13C11.0524 13 11.5001 12.5523 11.5001 12C11.5001 11.4477 11.0524 11 10.5001 11C9.94785 11 9.50013 11.4477 9.50013 12C9.50013 12.5523 9.94785 13 10.5001 13ZM15.0001 12C15.0001 12.5523 14.5524 13 14.0001 13C13.4478 13 13.0001 12.5523 13.0001 12C13.0001 11.4477 13.4478 11 14.0001 11C14.5524 11 15.0001 11.4477 15.0001 12Z" fill="white"/>
<defs>
<linearGradient id="paint0_linear_2380_54615" x1="0" y1="0" x2="0" y2="23.9567" gradientUnits="userSpaceOnUse">
<stop stop-color="#ADADAD" stop-opacity="0.01"/>
<stop offset="1" stop-color="#9D9D9D"/>
</linearGradient>
</defs>
</svg>
