<svg width="24" height="24" viewBox="0 0 24 24" fill="none" xmlns="http://www.w3.org/2000/svg">
<path fill-rule="evenodd" clip-rule="evenodd" d="M20.9248 0C23.1022 0 23.9567 1.77847 23.9567 3.01865C23.9567 4.25884 23.9567 18.7816 23.9567 20.6421C23.9567 22.393 22.7281 23.9567 20.9248 23.9567C19.1215 23.9567 4.6493 23.9567 2.80929 23.9567C1.38662 23.9567 0 22.5148 0 21.1587C0 19.8026 0 4.03533 0 2.67255C0 1.30978 1.3654 0 2.60956 0C3.85372 0 18.9601 0 20.9248 0Z" fill="url(#paint0_linear_2380_54743)"/>
<mask id="mask0_2380_54743" style="mask-type:alpha" maskUnits="userSpaceOnUse" x="0" y="0" width="24" height="24">
<path fill-rule="evenodd" clip-rule="evenodd" d="M20.9248 0C23.1022 0 23.9567 1.77847 23.9567 3.01865C23.9567 4.25884 23.9567 18.7816 23.9567 20.6421C23.9567 22.393 22.7281 23.9567 20.9248 23.9567C19.1215 23.9567 4.6493 23.9567 2.80929 23.9567C1.38662 23.9567 0 22.5148 0 21.1587C0 19.8026 0 4.03533 0 2.67255C0 1.30978 1.3654 0 2.60956 0C3.85372 0 18.9601 0 20.9248 0Z" fill="white"/>
</mask>
<g mask="url(#mask0_2380_54743)">
<rect width="24" height="24" fill="#D179BD"/>
</g>
<path fill-rule="evenodd" clip-rule="evenodd" d="M12.5933 3.51272C11.5612 2.57832 10.1328 2 8.55459 2C5.40678 2 2.85498 4.30063 2.85498 7.1386C2.85498 7.90404 3.04061 8.6304 3.37351 9.28306C2.52707 10.2198 2 11.5388 2 13C2 15.842 3.99387 18.146 6.45343 18.146C6.57756 18.146 6.70051 18.1401 6.82207 18.1286H17.0902C17.1168 18.1286 17.1433 18.1283 17.1698 18.1278C17.294 18.1399 17.4197 18.146 17.5466 18.146C20.0061 18.146 22 15.842 22 13C22 11.4532 21.4094 10.0659 20.4746 9.12252C20.6401 8.61108 20.7298 8.06386 20.7298 7.49504C20.7298 4.65707 18.4977 2.35645 15.7443 2.35645C14.5491 2.35645 13.4521 2.78995 12.5933 3.51272ZM22.0001 19.9962V20.9962H14.938V21.1486C14.938 21.7008 14.4903 22.1486 13.938 22.1486H10.0001C9.4478 22.1486 9.00009 21.7008 9.00009 21.1486V20.9962H2.00009L2.00009 19.9962H9.00009C9.00213 19.4457 9.44906 19 10.0001 19H13.938C14.4891 19 14.936 19.4457 14.938 19.9962H22.0001ZM5.78334 9.12709C5.33452 9.19782 5.02801 9.61901 5.09874 10.0678L6.05927 16.1628C6.13 16.6117 6.55118 16.9182 7.00001 16.8474L13.095 15.8869C13.5438 15.8162 13.8503 15.395 13.7796 14.9462L12.8191 8.85116C12.7484 8.40234 12.3272 8.09584 11.8783 8.16657L5.78334 9.12709ZM13.1565 3.77634C12.763 3.54916 12.2598 3.68398 12.0327 4.07747L9.69355 8.12893L12.0393 7.73627C12.5863 7.6447 13.1034 8.01581 13.1916 8.56337L13.9486 13.2584L14.5922 13.63C14.9857 13.8572 15.4889 13.7223 15.7161 13.3289L18.8012 7.98528C19.0284 7.59179 18.8936 7.08864 18.5001 6.86146L13.1565 3.77634ZM8.80474 11.82L7.48957 11.8972L7.48902 11.8738C7.48609 11.7512 7.48022 11.5055 7.50187 11.3596C7.54717 11.0541 7.71682 10.7588 7.84796 10.6004C8.04418 10.3635 8.37708 10.1144 9.0702 9.99618C9.76332 9.87793 10.0095 9.94236 10.3317 10.0871C10.6677 10.2381 10.9782 10.4901 11.0702 10.9009C11.1821 11.4008 11.0474 11.6513 10.9782 11.7739C10.7817 12.1219 10.4221 12.5174 10.3259 12.6188C10.2018 12.7497 10.1114 12.9541 10.1344 13.0849C10.1375 13.1023 10.1417 13.1246 10.1462 13.1484L10.1462 13.1485L10.1462 13.1486C10.1561 13.2013 10.1674 13.2614 10.1711 13.2926L8.90927 13.5151C8.88343 13.3385 8.85784 12.9899 8.86004 12.8534C8.86369 12.6267 9.21608 12.1283 9.41207 11.935C9.63901 11.7113 9.78075 11.4615 9.76018 11.3223C9.7299 11.1175 9.54435 10.9756 9.31286 11.0125C9.08137 11.0493 8.93389 11.1883 8.86432 11.3256C8.80576 11.4412 8.80546 11.6223 8.80524 11.7527V11.7527C8.8052 11.7772 8.80516 11.7999 8.80474 11.82ZM10.2789 13.6345L8.92868 13.8726L9.13625 15.0498L10.4865 14.8117L10.2789 13.6345ZM13.2639 6.95424L14.321 7.74047C14.3342 7.72531 14.3488 7.70795 14.3646 7.68922C14.4486 7.58947 14.5652 7.45094 14.6844 7.40003C14.8259 7.33957 15.0282 7.32791 15.2293 7.44848C15.4303 7.56905 15.4812 7.797 15.3728 7.97336C15.2991 8.09319 15.0299 8.19347 14.7122 8.21899C14.4379 8.24102 13.8476 8.39635 13.699 8.56769C13.6266 8.65127 13.5487 8.7795 13.4719 8.90596L13.4719 8.90597C13.4539 8.93556 13.436 8.96505 13.4182 8.99385L14.421 9.74681C14.4383 9.72053 14.4683 9.66726 14.4946 9.6205L14.4946 9.62042L14.4946 9.62036C14.5065 9.59926 14.5176 9.5795 14.5265 9.56415C14.5929 9.44914 14.7936 9.35069 14.9728 9.33017C15.1116 9.31429 15.6413 9.24255 16.0155 9.10224C16.1474 9.05279 16.4116 8.94751 16.6472 8.49262C16.8408 8.11874 16.7649 7.72616 16.6046 7.39453C16.4508 7.07654 16.3036 6.86893 15.6966 6.51399C15.0897 6.15904 14.6745 6.13589 14.3719 6.19123C14.1697 6.22822 13.8499 6.3454 13.6189 6.55029C13.5084 6.6482 13.355 6.84018 13.2784 6.936L13.2639 6.95424ZM14.2839 10.0781L13.8675 10.9385L13.6044 9.70625L14.2839 10.0781Z" fill="white"/>
<defs>
<linearGradient id="paint0_linear_2380_54743" x1="0" y1="0" x2="0" y2="23.9567" gradientUnits="userSpaceOnUse">
<stop stop-color="#ADADAD" stop-opacity="0.01"/>
<stop offset="1" stop-color="#9D9D9D"/>
</linearGradient>
</defs>
</svg>
