<svg width="24" height="24" viewBox="0 0 24 24" fill="none" xmlns="http://www.w3.org/2000/svg">
<path fill-rule="evenodd" clip-rule="evenodd" d="M20.9248 0C23.1022 0 23.9567 1.77847 23.9567 3.01865C23.9567 4.25884 23.9567 18.7816 23.9567 20.6421C23.9567 22.393 22.7281 23.9567 20.9248 23.9567C19.1215 23.9567 4.6493 23.9567 2.80929 23.9567C1.38662 23.9567 0 22.5148 0 21.1587C0 19.8026 0 4.03533 0 2.67255C0 1.30978 1.3654 0 2.60956 0C3.85372 0 18.9601 0 20.9248 0Z" fill="url(#paint0_linear_2380_54822)"/>
<mask id="mask0_2380_54822" style="mask-type:alpha" maskUnits="userSpaceOnUse" x="0" y="0" width="24" height="24">
<path fill-rule="evenodd" clip-rule="evenodd" d="M20.9248 0C23.1022 0 23.9567 1.77847 23.9567 3.01865C23.9567 4.25884 23.9567 18.7816 23.9567 20.6421C23.9567 22.393 22.7281 23.9567 20.9248 23.9567C19.1215 23.9567 4.6493 23.9567 2.80929 23.9567C1.38662 23.9567 0 22.5148 0 21.1587C0 19.8026 0 4.03533 0 2.67255C0 1.30978 1.3654 0 2.60956 0C3.85372 0 18.9601 0 20.9248 0Z" fill="white"/>
</mask>
<g mask="url(#mask0_2380_54822)">
<rect width="24" height="24" fill="#D179BD"/>
</g>
<path fill-rule="evenodd" clip-rule="evenodd" d="M8.55459 1.92572C10.1328 1.92572 11.5612 2.50404 12.5933 3.43844C13.4521 2.71567 14.5491 2.28217 15.7443 2.28217C18.4977 2.28217 20.7298 4.58279 20.7298 7.42076C20.7298 7.98958 20.6401 8.5368 20.4746 9.04824C21.4094 9.99157 22 11.3789 22 12.9257C22 15.7678 20.0061 18.0717 17.5466 18.0717C17.4197 18.0717 17.294 18.0656 17.1698 18.0536C17.1433 18.0541 17.1168 18.0543 17.0902 18.0543H6.82207C6.70051 18.0658 6.57756 18.0717 6.45343 18.0717C3.99387 18.0717 2 15.7678 2 12.9257C2 11.4645 2.52707 10.1455 3.37351 9.20879C3.04061 8.55612 2.85498 7.82976 2.85498 7.06432C2.85498 4.22635 5.40678 1.92572 8.55459 1.92572ZM22.0001 20.9219V19.9219H14.938C14.936 19.3714 14.4891 18.9257 13.938 18.9257H10.0001C9.44906 18.9257 9.00213 19.3714 9.00009 19.9219H2.00009L2.00009 20.9219H9.00009V21.0743C9.00009 21.6266 9.4478 22.0743 10.0001 22.0743H13.938C14.4903 22.0743 14.938 21.6266 14.938 21.0743V20.9219H22.0001ZM11.4639 5.00446C10.4426 5.07213 9.47376 5.33171 8.59292 5.74751L10.1017 8.36442C10.5292 8.18857 10.9865 8.07035 11.4639 8.01939V5.00446ZM13.8375 8.33986C13.4058 8.16896 12.9447 8.0565 12.4639 8.01221V5C13.4888 5.05868 14.4621 5.31059 15.348 5.71992L13.8375 8.33986ZM15.9062 9.87214C15.5731 9.4552 15.1748 9.09276 14.7267 8.80031L16.2283 6.19588C17.1287 6.75837 17.9094 7.49517 18.5232 8.35913L15.9062 9.87214ZM9.21901 8.83624C8.79304 9.12225 8.41341 9.47211 8.09378 9.87214L5.47683 8.35913C6.07808 7.51281 6.83946 6.78851 7.71671 6.23055L9.21901 8.83624ZM4.94889 9.21021L7.54943 10.7137C7.19821 11.3986 7 12.1751 7 12.9979H4C4 11.6278 4.34347 10.338 4.94889 9.21021ZM16.4506 10.7137L19.0511 9.21021C19.6565 10.338 20 11.6278 20 12.9979H17C17 12.1751 16.8018 11.3986 16.4506 10.7137ZM14.0487 9.34575C13.8096 9.20748 13.5039 9.2894 13.3659 9.52871L12.2095 11.5344C12.1006 11.5092 11.9872 11.4959 11.8706 11.4959C11.0422 11.4959 10.3706 12.1684 10.3706 12.9979C10.3706 13.8275 11.0422 14.5 11.8706 14.5C12.699 14.5 13.3706 13.8275 13.3706 12.9979C13.3706 12.6495 13.2521 12.3287 13.0532 12.0738L14.2319 10.0294C14.3699 9.7901 14.2879 9.48401 14.0487 9.34575Z" fill="white"/>
<defs>
<linearGradient id="paint0_linear_2380_54822" x1="0" y1="0" x2="0" y2="23.9567" gradientUnits="userSpaceOnUse">
<stop stop-color="#ADADAD" stop-opacity="0.01"/>
<stop offset="1" stop-color="#9D9D9D"/>
</linearGradient>
</defs>
</svg>
