<svg width="24" height="24" viewBox="0 0 24 24" fill="none" xmlns="http://www.w3.org/2000/svg">
<path fill-rule="evenodd" clip-rule="evenodd" d="M20.9248 0C23.1022 0 23.9567 1.77847 23.9567 3.01865C23.9567 4.25884 23.9567 18.7816 23.9567 20.6421C23.9567 22.393 22.7281 23.9567 20.9248 23.9567C19.1215 23.9567 4.6493 23.9567 2.80929 23.9567C1.38662 23.9567 0 22.5148 0 21.1587C0 19.8026 0 4.03533 0 2.67255C0 1.30978 1.3654 0 2.60956 0C3.85372 0 18.9601 0 20.9248 0Z" fill="url(#paint0_linear_2380_54797)"/>
<mask id="mask0_2380_54797" style="mask-type:alpha" maskUnits="userSpaceOnUse" x="0" y="0" width="24" height="24">
<path fill-rule="evenodd" clip-rule="evenodd" d="M20.9248 0C23.1022 0 23.9567 1.77847 23.9567 3.01865C23.9567 4.25884 23.9567 18.7816 23.9567 20.6421C23.9567 22.393 22.7281 23.9567 20.9248 23.9567C19.1215 23.9567 4.6493 23.9567 2.80929 23.9567C1.38662 23.9567 0 22.5148 0 21.1587C0 19.8026 0 4.03533 0 2.67255C0 1.30978 1.3654 0 2.60956 0C3.85372 0 18.9601 0 20.9248 0Z" fill="white"/>
</mask>
<g mask="url(#mask0_2380_54797)">
<rect width="24" height="24" fill="#D179BD"/>
</g>
<path fill-rule="evenodd" clip-rule="evenodd" d="M8.55459 2C10.1328 2 11.5612 2.57832 12.5933 3.51272C13.4521 2.78995 14.5491 2.35645 15.7443 2.35645C18.4977 2.35645 20.7298 4.65707 20.7298 7.49504C20.7298 8.06386 20.6401 8.61108 20.4746 9.12252C21.4094 10.0659 22 11.4532 22 13C22 15.842 20.0061 18.146 17.5466 18.146C17.4197 18.146 17.294 18.1399 17.1698 18.1278C17.1433 18.1283 17.1168 18.1286 17.0902 18.1286H6.82207C6.70051 18.1401 6.57756 18.146 6.45343 18.146C3.99387 18.146 2 15.842 2 13C2 11.5388 2.52707 10.2198 3.37351 9.28306C3.04061 8.6304 2.85498 7.90404 2.85498 7.1386C2.85498 4.30063 5.40678 2 8.55459 2ZM22.0001 20.9962V19.9962H14.938C14.936 19.4457 14.4891 19 13.938 19H10.0001C9.44906 19 9.00213 19.4457 9.00009 19.9962H2.00009L2.00009 20.9962H9.00009V21.1486C9.00009 21.7008 9.4478 22.1486 10.0001 22.1486H13.938C14.4903 22.1486 14.938 21.7008 14.938 21.1486V20.9962H22.0001ZM18.9998 9.5H19.9998V15.5H18.9998L17.9998 13.5H17.2998C17.2998 13.5 16.3819 15.9243 16.26 16.3476C16.1382 16.7709 15.9269 17 15.3 17H4.99609C4.30197 17 4 16.8347 4 15.9243V10.0478C4 9.2459 4.45127 9 4.99609 9H5.50071V6C5.50071 5.68904 5.728 5.5 6.17959 5.5H13.6228C14.1154 5.5 14.4961 5.59534 14.4961 6V8.97752L15.3 8.97752C15.7479 8.97752 16.0265 9.42914 16.1896 9.69368C16.216 9.73649 16.2394 9.7744 16.26 9.80471C16.5126 10.1764 17.2998 11.5 17.2998 11.5H17.9998L18.9998 9.5ZM14.2789 15C14.9604 15 14.9983 14.5406 14.9983 14.3691V12.9631V11.6809C14.9983 11.6637 14.9987 11.6454 14.9991 11.6261C15.0042 11.3844 15.0124 11 14.2911 11H6.18713C5.57866 11 5.5 11.3624 5.5 11.6809L5.50003 14.3691C5.50003 14.7734 5.66384 15 6.18713 15H14.2789ZM7.31569 7.00922C7.15895 7.00922 6.99777 7.20031 6.99777 7.3914V8.99729L13.0002 8.99729L13.0002 7.39141C13.0002 7.15535 12.8221 7.00922 12.6094 7.00922H7.31569Z" fill="white"/>
<defs>
<linearGradient id="paint0_linear_2380_54797" x1="0" y1="0" x2="0" y2="23.9567" gradientUnits="userSpaceOnUse">
<stop stop-color="#ADADAD" stop-opacity="0.01"/>
<stop offset="1" stop-color="#9D9D9D"/>
</linearGradient>
</defs>
</svg>
