<svg width="24" height="24" viewBox="0 0 24 24" fill="none" xmlns="http://www.w3.org/2000/svg">
<path fill-rule="evenodd" clip-rule="evenodd" d="M20.9248 0C23.1022 0 23.9567 1.77847 23.9567 3.01865C23.9567 4.25884 23.9567 18.7816 23.9567 20.6421C23.9567 22.393 22.7281 23.9567 20.9248 23.9567C19.1215 23.9567 4.6493 23.9567 2.80929 23.9567C1.38662 23.9567 0 22.5148 0 21.1587C0 19.8026 0 4.03533 0 2.67255C0 1.30978 1.3654 0 2.60956 0C3.85372 0 18.9601 0 20.9248 0Z" fill="url(#paint0_linear_2380_54771)"/>
<mask id="mask0_2380_54771" style="mask-type:alpha" maskUnits="userSpaceOnUse" x="0" y="0" width="24" height="24">
<path fill-rule="evenodd" clip-rule="evenodd" d="M20.9248 0C23.1022 0 23.9567 1.77847 23.9567 3.01865C23.9567 4.25884 23.9567 18.7816 23.9567 20.6421C23.9567 22.393 22.7281 23.9567 20.9248 23.9567C19.1215 23.9567 4.6493 23.9567 2.80929 23.9567C1.38662 23.9567 0 22.5148 0 21.1587C0 19.8026 0 4.03533 0 2.67255C0 1.30978 1.3654 0 2.60956 0C3.85372 0 18.9601 0 20.9248 0Z" fill="white"/>
</mask>
<g mask="url(#mask0_2380_54771)">
<rect width="24" height="24" fill="#D179BD"/>
</g>
<path fill-rule="evenodd" clip-rule="evenodd" d="M8.55459 2C10.1328 2 11.5612 2.57832 12.5933 3.51272C13.4521 2.78995 14.5491 2.35645 15.7443 2.35645C18.4977 2.35645 20.7298 4.65707 20.7298 7.49504C20.7298 8.06386 20.6401 8.61108 20.4746 9.12252C21.4094 10.0659 22 11.4532 22 13C22 15.842 20.0061 18.146 17.5466 18.146C17.4197 18.146 17.294 18.1399 17.1698 18.1278C17.1433 18.1283 17.1168 18.1286 17.0902 18.1286H6.82207C6.70051 18.1401 6.57756 18.146 6.45343 18.146C3.99387 18.146 2 15.842 2 13C2 11.5388 2.52707 10.2198 3.37351 9.28306C3.04061 8.6304 2.85498 7.90404 2.85498 7.1386C2.85498 4.30063 5.40678 2 8.55459 2ZM22.0001 20.9962V19.9962H14.938C14.936 19.4457 14.4891 19 13.938 19H10.0001C9.44906 19 9.00213 19.4457 9.00009 19.9962H2.00009L2.00009 20.9962H9.00009V21.1486C9.00009 21.7008 9.4478 22.1486 10.0001 22.1486H13.938C14.4903 22.1486 14.938 21.7008 14.938 21.1486V20.9962H22.0001ZM12.9698 4.32032C12.5455 4.07216 12.0029 4.21943 11.758 4.64927L8.90355 9.51642L12.3785 13.1498C12.4801 13.2561 12.6511 13.2521 12.7476 13.1412L13.5398 12.2319C13.5873 12.1774 13.656 12.1461 13.7283 12.1461H17.2167L19.0563 8.91805C19.3013 8.48821 19.1559 7.93858 18.7316 7.69041L12.9698 4.32032ZM13.0062 7.18102L14.0282 8.02538C14.0422 8.01062 14.0576 7.99369 14.0742 7.97543L14.0742 7.97538L14.0742 7.97538C14.1628 7.87802 14.2858 7.74283 14.4073 7.69657C14.5517 7.64163 14.7547 7.63887 14.9503 7.7701C15.146 7.90133 15.1866 8.13468 15.0701 8.30859C14.9909 8.42676 14.717 8.51635 14.398 8.52798C14.1225 8.53802 13.5247 8.66901 13.3683 8.83604C13.2742 8.93658 13.0567 9.21477 12.956 9.36453L14.0372 10.0637C14.0556 10.0378 14.088 9.98512 14.1165 9.93889L14.1165 9.9388L14.1165 9.93878L14.1166 9.93873C14.1294 9.91789 14.1414 9.89837 14.151 9.88322C14.2226 9.76961 14.4279 9.67881 14.6082 9.66605C14.7478 9.65616 15.2811 9.60718 15.6619 9.48172C15.7961 9.43751 16.0652 9.34262 16.3216 8.89207C16.5323 8.52175 16.4742 8.1204 16.3289 7.77705C16.1895 7.44781 16.0516 7.23077 15.4604 6.84377C14.8693 6.45676 14.4549 6.41469 14.1497 6.45722C13.9456 6.48565 13.6203 6.59011 13.3798 6.78745C13.2649 6.88174 13.1027 7.06944 13.0217 7.16315L13.0217 7.16318L13.0062 7.18102ZM12.728 9.64518L13.8849 10.3933L13.2398 11.4159L12.0829 10.6677L12.728 9.64518ZM8.10614 10.674C8.3071 10.3927 8.71732 10.3708 8.94702 10.6293L11.9982 14.1519C12.3306 14.5436 12.7284 14.4984 12.911 14.1946L12.9123 14.1925C12.9286 14.1655 12.9449 14.1383 12.9641 14.1133L13.7014 13.1551C13.7189 13.1324 13.7339 13.108 13.7488 13.0836L13.7489 13.0835L13.7547 13.074C13.8521 12.9158 14.0253 12.8179 14.2133 12.8179H18.7325C19.03 12.8179 19.2711 13.059 19.2711 13.3565C19.2711 13.654 19.03 13.8951 18.7325 13.8951H15.1374C14.9796 13.8951 14.831 13.9696 14.7366 14.0961L12.9344 16.5113C12.744 16.8162 12.3139 16.8524 12.0751 16.5837L8.71981 12.5455C8.61087 12.4144 8.40553 12.4284 8.31536 12.5731L6.68589 15.1873C6.47909 15.449 6.08651 15.4617 5.86316 15.214L4.8349 14.0731C4.73276 13.9598 4.58736 13.8951 4.4348 13.8951H3.64108C3.34361 13.8951 3.10245 13.654 3.10245 13.3565C3.10245 13.059 3.34361 12.8179 3.64108 12.8179H4.98997C5.13283 12.8179 5.26983 12.8746 5.37084 12.9756L5.84074 13.4455C6.0761 13.6809 6.46645 13.6486 6.65991 13.3777L8.10614 10.674Z" fill="white"/>
<defs>
<linearGradient id="paint0_linear_2380_54771" x1="0" y1="0" x2="0" y2="23.9567" gradientUnits="userSpaceOnUse">
<stop stop-color="#ADADAD" stop-opacity="0.01"/>
<stop offset="1" stop-color="#9D9D9D"/>
</linearGradient>
</defs>
</svg>
