<svg width="24" height="24" viewBox="0 0 24 24" fill="none" xmlns="http://www.w3.org/2000/svg">
<path fill-rule="evenodd" clip-rule="evenodd" d="M8.55435 2C10.1326 2 11.561 2.57832 12.5931 3.51272C13.4519 2.78995 14.5488 2.35645 15.7441 2.35645C18.4975 2.35645 20.7296 4.65707 20.7296 7.49504C20.7296 8.06386 20.6399 8.61108 20.4743 9.12252C21.4092 10.0659 21.9998 11.4532 21.9998 13C21.9998 15.842 20.0059 18.146 17.5463 18.146C17.4194 18.146 17.2938 18.1399 17.1696 18.1278C17.1431 18.1283 17.1165 18.1286 17.0899 18.1286H6.82182C6.70026 18.1401 6.57732 18.146 6.45319 18.146C3.99363 18.146 1.99976 15.842 1.99976 13C1.99976 11.5388 2.52682 10.2198 3.37327 9.28306C3.04037 8.6304 2.85474 7.90404 2.85474 7.1386C2.85474 4.30063 5.40654 2 8.55435 2ZM21.9998 20.9962V19.9962H14.9378C14.9357 19.4457 14.4888 19 13.9378 19H9.99984C9.44882 19 9.00189 19.4457 8.99985 19.9962H1.99984L1.99984 20.9962H8.99984V21.1486C8.99984 21.7008 9.44756 22.1486 9.99984 22.1486H13.9378C14.4901 22.1486 14.9378 21.7008 14.9378 21.1486V20.9962H21.9998ZM16.4755 3.60243C16.1103 3.81329 15.9852 4.2803 16.196 4.64552L17.9777 7.73154C18.1886 8.09676 18.6556 8.2219 19.0208 8.01104C19.386 7.80018 19.5112 7.33317 19.3003 6.96795L17.5186 3.88192C17.3077 3.5167 16.8407 3.39157 16.4755 3.60243ZM14.6162 4.56022C14.251 4.77108 14.1259 5.23809 14.3367 5.60331L16.1185 8.68933C16.3293 9.05455 16.7963 9.17969 17.1615 8.96883C17.5268 8.75797 17.6519 8.29096 17.441 7.92574L15.6593 4.83972C15.4485 4.47449 14.9814 4.34936 14.6162 4.56022ZM4.99453 11.645L7.22375 10.358C7.61119 10.1343 7.80292 9.68047 7.69322 9.24675L7.51549 8.544C7.45842 8.31834 7.54868 8.08109 7.74131 7.95043L9.8682 6.72247L9.71681 5.64382C9.65185 5.41671 9.37678 5.04628 8.79625 5.38145L4.99942 7.57355C4.64096 7.78051 4.4477 8.18654 4.51234 8.59537L4.99453 11.645ZM6.23519 8.8859C6.53954 8.71018 6.64382 8.32101 6.4681 8.01666C6.29238 7.7123 5.90321 7.60803 5.59886 7.78374C5.29451 7.95946 5.19023 8.34863 5.36595 8.65298C5.54166 8.95733 5.93084 9.06161 6.23519 8.8859ZM13.5623 11.0152L11.0808 6.71703L8.87402 7.99108C8.48065 8.2182 8.28976 8.68192 8.40924 9.12015L8.52969 9.56195C8.64918 10.0002 8.45855 10.4638 8.06517 10.6909L5.06993 12.4202C6.28385 14.5227 7.47779 14.5281 8.42674 13.9802L13.5623 11.0152ZM7.75522 12.7911C7.5737 12.4767 7.68142 12.0747 7.99583 11.8932L10.8422 10.2498C11.1566 10.0683 11.5587 10.176 11.7402 10.4904C11.9217 10.8048 11.814 11.2069 11.4996 11.3884L8.65319 13.0317C8.33878 13.2133 7.93674 13.1055 7.75522 12.7911ZM11.893 6.62021L13.5293 6.48036C13.9158 6.44732 14.2865 6.64079 14.4805 6.97673L15.051 7.96485C15.2434 8.29812 15.2275 8.71225 15.0101 9.02978L14.0737 10.3974L11.893 6.62021ZM9.05069 14.387L11.484 12.9821C11.717 13.906 12.203 15.8364 12.2831 16.1673C12.295 16.2167 12.3079 16.2638 12.3202 16.3091C12.411 16.6427 12.4742 16.875 11.9614 17.1711L11.0567 17.6934C10.6921 17.9039 10.1491 17.8985 10.0473 17.4581C9.96594 17.1058 9.34899 15.2639 9.05069 14.387ZM11.324 15.1544C11.4997 15.4588 11.3954 15.848 11.0911 16.0237C10.7867 16.1994 10.3975 16.0951 10.2218 15.7908C10.0461 15.4864 10.1504 15.0972 10.4547 14.9215C10.7591 14.7458 11.1483 14.8501 11.324 15.1544Z" fill="#D179BD"/>
</svg>
