<svg width="24" height="24" viewBox="0 0 24 24" fill="none" xmlns="http://www.w3.org/2000/svg">
<path fill-rule="evenodd" clip-rule="evenodd" d="M8.55435 2C10.1326 2 11.561 2.57832 12.5931 3.51272C13.4519 2.78995 14.5488 2.35645 15.7441 2.35645C18.4975 2.35645 20.7296 4.65707 20.7296 7.49504C20.7296 8.06386 20.6399 8.61108 20.4743 9.12252C21.4092 10.0659 21.9998 11.4532 21.9998 13C21.9998 15.842 20.0059 18.146 17.5463 18.146C17.4194 18.146 17.2938 18.1399 17.1696 18.1278C17.1431 18.1283 17.1165 18.1286 17.0899 18.1286H6.82182C6.70026 18.1401 6.57732 18.146 6.45319 18.146C3.99363 18.146 1.99976 15.842 1.99976 13C1.99976 11.5388 2.52682 10.2198 3.37327 9.28306C3.04037 8.6304 2.85474 7.90404 2.85474 7.1386C2.85474 4.30063 5.40654 2 8.55435 2ZM21.9998 20.9962V19.9962H14.9378C14.9357 19.4457 14.4888 19 13.9378 19H9.99984C9.44882 19 9.00189 19.4457 8.99985 19.9962H1.99984L1.99984 20.9962H8.99984V21.1486C8.99984 21.7008 9.44756 22.1486 9.99984 22.1486H13.9378C14.4901 22.1486 14.9378 21.7008 14.9378 21.1486V20.9962H21.9998ZM12.9695 4.32032C12.5452 4.07216 12.0027 4.21943 11.7577 4.64927L8.9033 9.51642L12.3782 13.1498C12.4798 13.2561 12.6508 13.2521 12.7474 13.1412L13.5395 12.2319C13.587 12.1774 13.6558 12.1461 13.728 12.1461H17.2164L19.0561 8.91805C19.3011 8.48821 19.1557 7.93858 18.7314 7.69041L12.9695 4.32032ZM13.006 7.18102L14.028 8.02538C14.0419 8.01062 14.0573 7.99369 14.0739 7.97543L14.074 7.97538C14.1626 7.87803 14.2856 7.74283 14.4071 7.69657C14.5515 7.64163 14.7544 7.63887 14.9501 7.7701C15.1457 7.90133 15.1864 8.13468 15.0698 8.30859C14.9906 8.42676 14.7167 8.51635 14.3977 8.52798C14.1222 8.53802 13.5245 8.66901 13.3681 8.83604C13.2739 8.93658 13.0565 9.21477 12.9558 9.36453L14.0369 10.0637C14.0554 10.0378 14.0878 9.98512 14.1162 9.93889L14.1163 9.9388L14.1163 9.93878L14.1163 9.93873C14.1292 9.91789 14.1412 9.89837 14.1507 9.88322C14.2224 9.76961 14.4276 9.67881 14.6079 9.66605C14.7476 9.65616 15.2809 9.60718 15.6616 9.48172C15.7958 9.43751 16.0649 9.34262 16.3213 8.89207C16.5321 8.52175 16.474 8.1204 16.3286 7.77705C16.1892 7.44781 16.0514 7.23077 15.4602 6.84377C14.869 6.45676 14.4547 6.41469 14.1494 6.45722C13.9454 6.48565 13.6201 6.59011 13.3796 6.78745C13.2647 6.88175 13.1024 7.06947 13.0214 7.16318L13.006 7.18102ZM12.7277 9.64518L13.8846 10.3933L13.2396 11.4159L12.0827 10.6677L12.7277 9.64518ZM8.1059 10.674C8.30686 10.3927 8.71708 10.3708 8.94678 10.6293L11.998 14.1519C12.3303 14.5436 12.7281 14.4984 12.9108 14.1946L12.912 14.1926L12.9121 14.1925C12.9283 14.1655 12.9446 14.1383 12.9639 14.1133L13.7012 13.1551C13.7187 13.1324 13.7337 13.1079 13.7486 13.0835L13.7545 13.074C13.8519 12.9158 14.025 12.8179 14.2131 12.8179H18.7323C19.0297 12.8179 19.2709 13.059 19.2709 13.3565C19.2709 13.654 19.0297 13.8951 18.7323 13.8951H15.1371C14.9793 13.8951 14.8308 13.9696 14.7364 14.0961L12.9342 16.5113C12.7437 16.8162 12.3137 16.8524 12.0748 16.5837L8.71956 12.5455C8.61062 12.4144 8.40529 12.4284 8.31512 12.5731L6.68565 15.1873C6.47885 15.449 6.08626 15.4617 5.86292 15.214L4.83465 14.0731C4.73252 13.9598 4.58712 13.8951 4.43456 13.8951H3.64084C3.34336 13.8951 3.10221 13.654 3.10221 13.3565C3.10221 13.059 3.34336 12.8179 3.64084 12.8179H4.98973C5.13258 12.8179 5.26959 12.8746 5.3706 12.9756L5.8405 13.4455C6.07585 13.6809 6.46621 13.6486 6.65967 13.3777L8.1059 10.674Z" fill="#D179BD"/>
</svg>
