<svg width="24" height="24" viewBox="0 0 24 24" fill="none" xmlns="http://www.w3.org/2000/svg">
<path fill-rule="evenodd" clip-rule="evenodd" d="M12.5933 3.43844C11.5612 2.50404 10.1328 1.92572 8.55459 1.92572C5.40678 1.92572 2.85498 4.22635 2.85498 7.06432C2.85498 7.82976 3.04061 8.55612 3.37351 9.20879C2.52707 10.1455 2 11.4645 2 12.9257C2 15.7678 3.99387 18.0717 6.45343 18.0717C6.57756 18.0717 6.70051 18.0658 6.82207 18.0543H17.0902C17.1168 18.0543 17.1433 18.0541 17.1698 18.0536C17.294 18.0656 17.4197 18.0717 17.5466 18.0717C20.0061 18.0717 22 15.7678 22 12.9257C22 11.3789 21.4094 9.99157 20.4746 9.04824C20.6401 8.5368 20.7298 7.98958 20.7298 7.42076C20.7298 4.58279 18.4977 2.28217 15.7443 2.28217C14.5491 2.28217 13.4521 2.71567 12.5933 3.43844ZM22.0001 19.9219V20.9219H14.938V21.0743C14.938 21.6266 14.4903 22.0743 13.938 22.0743H10.0001C9.4478 22.0743 9.00009 21.6266 9.00009 21.0743V20.9219H2.00009L2.00009 19.9219H9.00009C9.00213 19.3714 9.44906 18.9257 10.0001 18.9257H13.938C14.4891 18.9257 14.936 19.3714 14.938 19.9219H22.0001ZM8.20843 5.07045C9.9722 4.66166 11.9876 6.12463 11.9876 7.07124C11.9876 6.16765 14.1094 4.78805 15.7812 5.07045C18.9652 5.6083 19.5562 9.19628 18.481 10.8147C17.9125 11.6705 17.0972 12.2692 16.1752 12.9463C14.8612 13.9113 13.3303 15.0356 11.9876 17.2903V17.279C10.645 15.0243 9.11407 13.9001 7.80002 12.9351C6.87801 12.258 6.06276 11.6593 5.49422 10.8035C4.41901 9.18502 5.00046 5.81395 8.20843 5.07045ZM11.1002 8.24725C11.1002 7.97111 11.3241 7.74725 11.6002 7.74725H12.4002C12.6764 7.74725 12.9002 7.97111 12.9002 8.24725V9.84724H14.5001C14.7762 9.84724 15.0001 10.0711 15.0001 10.3472V11.1472C15.0001 11.4234 14.7762 11.6472 14.5001 11.6472H12.9002V13.2472C12.9002 13.5234 12.6764 13.7472 12.4002 13.7472H11.6002C11.3241 13.7472 11.1002 13.5234 11.1002 13.2472V11.6472H9.5001C9.22396 11.6472 9.0001 11.4234 9.0001 11.1472V10.3472C9.0001 10.0711 9.22396 9.84724 9.5001 9.84724H11.1002V8.24725Z" fill="#D179BD"/>
</svg>
