<svg width="24" height="24" viewBox="0 0 24 24" fill="none" xmlns="http://www.w3.org/2000/svg">
<path fill-rule="evenodd" clip-rule="evenodd" d="M8.55435 1.92572C10.1326 1.92572 11.561 2.50404 12.5931 3.43844C13.4519 2.71567 14.5488 2.28217 15.7441 2.28217C18.4975 2.28217 20.7296 4.58279 20.7296 7.42076C20.7296 7.98958 20.6399 8.5368 20.4743 9.04824C21.4092 9.99157 21.9998 11.3789 21.9998 12.9257C21.9998 15.7678 20.0059 18.0717 17.5463 18.0717C17.4194 18.0717 17.2938 18.0656 17.1696 18.0536C17.1431 18.0541 17.1165 18.0543 17.0899 18.0543H6.82182C6.70026 18.0658 6.57732 18.0717 6.45319 18.0717C3.99363 18.0717 1.99976 15.7678 1.99976 12.9257C1.99976 11.4645 2.52682 10.1455 3.37327 9.20879C3.04037 8.55612 2.85474 7.82976 2.85474 7.06432C2.85474 4.22635 5.40654 1.92572 8.55435 1.92572ZM21.9998 20.9219V19.9219H14.9378C14.9357 19.3714 14.4888 18.9257 13.9378 18.9257H9.99984C9.44882 18.9257 9.00189 19.3714 8.99985 19.9219H1.99984L1.99984 20.9219H8.99984V21.0743C8.99984 21.6266 9.44756 22.0743 9.99984 22.0743H13.9378C14.4901 22.0743 14.9378 21.6266 14.9378 21.0743V20.9219H21.9998ZM15.9999 7.99999C15.9999 7.4477 15.5522 6.99999 14.9999 6.99999H8.49989C7.9476 6.99999 7.49989 7.4477 7.49989 7.99999V14H15.9999V12.5031H15.9998V8.0031H15.9999V7.99999ZM16.9999 14V12.5031H18.4999C19.0522 12.5031 19.4999 12.0554 19.4999 11.5031V9.0031C19.4999 8.45081 19.0522 8.0031 18.4999 8.0031H16.9999V6.99999C16.9999 6.4477 16.5522 5.99999 15.9999 5.99999H7.49989C6.9476 5.99999 6.49989 6.4477 6.49989 6.99999V8.0031H4.98866C4.43637 8.0031 3.98866 8.45081 3.98866 9.0031V11.5031C3.98866 12.0554 4.43637 12.5031 4.98866 12.5031H6.49989V14C6.49989 14.5523 6.9476 15 7.49989 15H15.9999C16.5522 15 16.9999 14.5523 16.9999 14ZM18.4999 11.5031H16.9999V9.0031L18.4999 9.0031V11.5031ZM9.95096 16.9914C9.87786 16.9914 9.80713 16.9938 9.73948 16.996C9.30694 17.0102 8.99989 17.0203 8.99989 16.3913L8.99989 15.5L15.9999 15.5V16.3913C15.9999 17.0178 15.6545 17.0103 15.0054 16.9962H15.0054C14.9008 16.9939 14.7884 16.9915 14.6683 16.9915L9.95096 16.9914ZM4.98866 9.0031H6.48877V11.5031H4.98866V9.0031ZM10.4999 13C11.0522 13 11.4999 12.5523 11.4999 12C11.4999 11.4477 11.0522 11 10.4999 11C9.9476 11 9.49989 11.4477 9.49989 12C9.49989 12.5523 9.9476 13 10.4999 13ZM14.9999 12C14.9999 12.5523 14.5522 13 13.9999 13C13.4476 13 12.9999 12.5523 12.9999 12C12.9999 11.4477 13.4476 11 13.9999 11C14.5522 11 14.9999 11.4477 14.9999 12Z" fill="#D179BD"/>
</svg>
