<svg width="24" height="24" viewBox="0 0 24 24" fill="none" xmlns="http://www.w3.org/2000/svg">
<path fill-rule="evenodd" clip-rule="evenodd" d="M8.55459 1.92572C10.1328 1.92572 11.5612 2.50404 12.5933 3.43844C13.4521 2.71567 14.5491 2.28217 15.7443 2.28217C18.4977 2.28217 20.7298 4.58279 20.7298 7.42076C20.7298 7.98958 20.6401 8.5368 20.4746 9.04824C21.4094 9.99157 22 11.3789 22 12.9257C22 15.7678 20.0061 18.0717 17.5466 18.0717C17.4197 18.0717 17.294 18.0656 17.1698 18.0536C17.1433 18.0541 17.1168 18.0543 17.0902 18.0543H6.82207C6.70051 18.0658 6.57756 18.0717 6.45343 18.0717C3.99387 18.0717 2 15.7678 2 12.9257C2 11.4645 2.52707 10.1455 3.37351 9.20879C3.04061 8.55612 2.85498 7.82976 2.85498 7.06432C2.85498 4.22635 5.40678 1.92572 8.55459 1.92572ZM22.0001 20.9219V19.9219H14.938C14.936 19.3714 14.4891 18.9257 13.938 18.9257H10.0001C9.44906 18.9257 9.00213 19.3714 9.00009 19.9219H2.00009L2.00009 20.9219H9.00009V21.0743C9.00009 21.6266 9.4478 22.0743 10.0001 22.0743H13.938C14.4903 22.0743 14.938 21.6266 14.938 21.0743V20.9219H22.0001ZM7.7702 9.20681L4.6748 7.8374L7.7702 6.46801L11.7526 7.8374L15.7298 6.46801L18.8252 7.8374L15.7298 9.20681L18.8252 10.5762L15.7298 12.3397L11.75 10.5762L7.7702 12.3862L4.6748 10.5762L7.7702 9.20681ZM15.2876 13.0867L11.75 11.4891L8.2124 13.0867V16.282L11.75 14.6844L15.2876 16.282V13.0867ZM18.8252 11.4891L16.172 13.0867V16.282L18.8252 14.6844V11.4891ZM7.32379 13.0867L4.6748 11.4891V14.6844L7.32379 16.282V13.0867Z" fill="#D179BD"/>
</svg>
