<svg width="24" height="24" viewBox="0 0 24 24" fill="none" xmlns="http://www.w3.org/2000/svg">
<path fill-rule="evenodd" clip-rule="evenodd" d="M8.55459 1.92572C10.1328 1.92572 11.5612 2.50404 12.5933 3.43844C13.4521 2.71567 14.5491 2.28217 15.7443 2.28217C18.4977 2.28217 20.7298 4.58279 20.7298 7.42076C20.7298 7.98958 20.6401 8.5368 20.4746 9.04824C21.4094 9.99157 22 11.3789 22 12.9257C22 15.7678 20.0061 18.0717 17.5466 18.0717C17.4197 18.0717 17.294 18.0656 17.1698 18.0536C17.1433 18.0541 17.1168 18.0543 17.0902 18.0543H6.82207C6.70051 18.0658 6.57756 18.0717 6.45343 18.0717C3.99387 18.0717 2 15.7678 2 12.9257C2 11.4645 2.52707 10.1455 3.37351 9.20879C3.04061 8.55612 2.85498 7.82976 2.85498 7.06432C2.85498 4.22635 5.40678 1.92572 8.55459 1.92572ZM22.0001 20.9219V19.9219H14.938C14.936 19.3714 14.4891 18.9257 13.938 18.9257H10.0001C9.44906 18.9257 9.00213 19.3714 9.00009 19.9219H2.00009L2.00009 20.9219H9.00009V21.0743C9.00009 21.6266 9.4478 22.0743 10.0001 22.0743H13.938C14.4903 22.0743 14.938 21.6266 14.938 21.0743V20.9219H22.0001ZM18 13.2685C18 13.6342 17.8037 13.9686 17.4875 14.1417L12.4833 16.8802C12.1903 17.0406 11.8354 17.0399 11.539 16.8784L6.53158 14.1507C6.2047 13.9727 6 13.6272 6 13.2537V7.72409C6 7.36517 6.1891 7.03592 6.4962 6.86011L11.0486 4.25401C11.6552 3.90675 12.4018 3.91057 13.0138 4.26406L17.4904 6.84981C17.805 7.03155 18 7.37004 18 7.73453V13.2685ZM12.3538 5.12871V7.18285L14.8094 8.65454L12.0922 10.1392L9.18971 8.65454L11.7411 7.18285V5.12871L7.11775 7.71621V12.8315L8.90372 11.8664V9.06238L11.7411 10.6878V13.6812L9.18971 12.413L7.32121 13.3429L12.0122 15.9222L16.6645 13.3429L14.8094 12.413L12.3538 13.6812V10.6878L15.1023 9.06238V11.8664L16.9066 12.8315V7.71621L12.3538 5.12871Z" fill="#D179BD"/>
</svg>
