<svg width="24" height="24" viewBox="0 0 24 24" fill="none" xmlns="http://www.w3.org/2000/svg">
<path fill-rule="evenodd" clip-rule="evenodd" d="M8.55459 2C10.1328 2 11.5612 2.57832 12.5933 3.51272C13.4521 2.78995 14.5491 2.35645 15.7443 2.35645C18.4977 2.35645 20.7298 4.65707 20.7298 7.49504C20.7298 8.06386 20.6401 8.61108 20.4746 9.12252C21.4094 10.0659 22 11.4532 22 13C22 15.842 20.0061 18.146 17.5466 18.146C17.4197 18.146 17.294 18.1399 17.1698 18.1278C17.1433 18.1283 17.1168 18.1286 17.0902 18.1286H6.82207C6.70051 18.1401 6.57756 18.146 6.45343 18.146C3.99387 18.146 2 15.842 2 13C2 11.5388 2.52707 10.2198 3.37351 9.28306C3.04061 8.6304 2.85498 7.90404 2.85498 7.1386C2.85498 4.30063 5.40678 2 8.55459 2ZM22.0001 20.9962V19.9962H14.938C14.936 19.4457 14.4891 19 13.938 19H10.0001C9.44906 19 9.00213 19.4457 9.00009 19.9962H2.00009L2.00009 20.9962H9.00009V21.1486C9.00009 21.7008 9.4478 22.1486 10.0001 22.1486H13.938C14.4903 22.1486 14.938 21.7008 14.938 21.1486V20.9962H22.0001ZM8.60565 4.08714H13.4926V5.72812C13.4926 5.99861 13.0959 6.73795 12.2123 6.73795H9.99427C9.14673 6.73795 8.60565 6.25107 8.60565 5.72812V4.08714ZM8.0828 8.07238H13.9795V8.95599H8.0828V8.07238ZM12.9516 10.9216H8.0828V11.8593H12.1221L12.9516 10.9216ZM8.0828 13.7527H11.3647V14.7085H8.0828V13.7527ZM7.86624 4.80843V5.80023H7.05482V16.4035H11.6892L12.3925 17.5035H6.11704V4.80843H7.86624ZM14.25 4.80843V5.80023H14.9713V10.0019L16.0533 9.82156V4.80843H14.25ZM17.055 12.2479C16.1379 12.188 15.6047 12.705 15.4076 12.9865C15.4076 12.8197 15.4464 12.4932 15.7013 12.188C16.0198 11.8066 16.5908 11.6816 17.055 11.6816C17.475 11.6816 17.7831 11.692 18.3475 12.0029C18.8586 12.2845 19.3361 13.141 19.4999 13.6256C19.4999 13.0539 19.3346 12.4593 19.0665 12.0029C18.8395 11.6163 18.1109 10.8615 17.055 10.807C16.2711 10.7666 15.7013 10.8853 15.1617 11.295C14.6751 11.6646 14.2552 12.26 14.2552 12.9558C14.2552 13.7096 14.4078 14.1211 14.9372 14.5622C13.8292 14.437 13.6946 13.528 13.6764 12.8742C13.6582 12.2203 13.9475 11.6674 14.2934 11.295C14.6392 10.9227 15.2525 10.5925 15.7013 10.5C15.2907 10.5 14.6163 10.5789 14.1895 10.807C13.6797 11.0795 13.3141 11.5608 13.1047 11.8968C12.8954 12.2328 12.5738 13.3708 12.9778 14.2682C13.4603 15.3398 14.3621 15.7493 15.0629 15.7493C15.9252 15.7493 16.3927 15.3084 16.5747 15.0632C16.5565 15.6081 16.1227 16.2598 15.1072 16.3194C14.1788 16.3739 13.5784 15.9776 13.2728 15.6948C12.9531 15.3991 12.6286 14.8508 12.5031 14.3281C12.465 15.1116 12.7648 15.813 13.1909 16.3194C13.5729 16.7735 14.2698 17.1703 15.1617 17.1912C16.0887 17.213 16.5069 16.9188 16.9347 16.61C17.3625 16.3013 17.737 15.6172 17.7643 14.9543C17.7916 14.2913 17.5078 13.7781 17.055 13.4406C18.0372 13.4731 18.2864 14.3023 18.3319 14.9107C18.3774 15.5192 18.1682 16.2121 17.7206 16.6968C17.3604 17.0869 16.7328 17.3883 16.3541 17.5C17.5951 17.5 18.2415 16.9021 18.5338 16.61C18.774 16.3701 19.5808 15.0632 19.0665 13.8489C18.6205 12.7957 18.0251 12.3113 17.055 12.2479Z" fill="#D179BD"/>
</svg>
