<svg width="24" height="24" viewBox="0 0 24 24" fill="none" xmlns="http://www.w3.org/2000/svg">
<path fill-rule="evenodd" clip-rule="evenodd" d="M12.5931 3.51272C11.561 2.57832 10.1326 2 8.55435 2C5.40654 2 2.85474 4.30063 2.85474 7.1386C2.85474 7.90404 3.04037 8.6304 3.37327 9.28306C2.52682 10.2198 1.99976 11.5388 1.99976 13C1.99976 15.842 3.99363 18.146 6.45319 18.146C6.57732 18.146 6.70026 18.1401 6.82182 18.1286H17.0899C17.1165 18.1286 17.1431 18.1283 17.1696 18.1278C17.2938 18.1399 17.4194 18.146 17.5463 18.146C20.0059 18.146 21.9998 15.842 21.9998 13C21.9998 11.4532 21.4092 10.0659 20.4743 9.12252C20.6399 8.61108 20.7296 8.06386 20.7296 7.49504C20.7296 4.65707 18.4975 2.35645 15.7441 2.35645C14.5488 2.35645 13.4519 2.78995 12.5931 3.51272ZM21.9998 19.9962V20.9962H14.9378V21.1486C14.9378 21.7008 14.4901 22.1486 13.9378 22.1486H9.99984C9.44756 22.1486 8.99984 21.7008 8.99984 21.1486V20.9962H1.99984L1.99984 19.9962H8.99985C9.00189 19.4457 9.44882 19 9.99984 19H13.9378C14.4888 19 14.9357 19.4457 14.9378 19.9962H21.9998ZM5.7831 9.12709C5.33427 9.19782 5.02777 9.61901 5.0985 10.0678L6.05902 16.1628C6.12976 16.6117 6.55094 16.9182 6.99976 16.8474L13.0948 15.8869C13.5436 15.8162 13.8501 15.395 13.7794 14.9462L12.8188 8.85116C12.7481 8.40234 12.3269 8.09584 11.8781 8.16657L5.7831 9.12709ZM13.1562 3.77634C12.7628 3.54916 12.2596 3.68398 12.0324 4.07747L9.69331 8.12893L12.039 7.73627C12.5861 7.6447 13.1031 8.01581 13.1914 8.56337L13.9484 13.2584L14.592 13.63C14.9855 13.8572 15.4886 13.7223 15.7158 13.3289L18.8009 7.98528C19.0281 7.59179 18.8933 7.08864 18.4998 6.86146L13.1562 3.77634ZM8.8045 11.82L7.48933 11.8972L7.48878 11.8738C7.48585 11.7512 7.47998 11.5055 7.50163 11.3596C7.54692 11.0541 7.71657 10.7588 7.84772 10.6004C8.04394 10.3635 8.37683 10.1144 9.06995 9.99618C9.76307 9.87793 10.0093 9.94236 10.3315 10.0871C10.6675 10.2381 10.9779 10.4901 11.0699 10.9009C11.1819 11.4008 11.0472 11.6513 10.978 11.7739C10.7815 12.1219 10.4218 12.5174 10.3257 12.6188C10.2016 12.7497 10.1111 12.9541 10.1342 13.0849C10.1373 13.1023 10.1415 13.1246 10.1459 13.1484L10.1459 13.1485C10.1558 13.2012 10.1671 13.2614 10.1708 13.2926L8.90903 13.5151C8.88318 13.3385 8.8576 12.9899 8.85979 12.8534C8.86345 12.6267 9.21584 12.1283 9.41183 11.935C9.63877 11.7113 9.7805 11.4615 9.75993 11.3223C9.72965 11.1175 9.54411 10.9756 9.31261 11.0125C9.08112 11.0493 8.93364 11.1883 8.86408 11.3256C8.80551 11.4412 8.80521 11.6223 8.805 11.7527V11.7527C8.80495 11.7772 8.80492 11.7999 8.8045 11.82ZM10.2787 13.6345L8.92844 13.8726L9.136 15.0498L10.4863 14.8117L10.2787 13.6345ZM13.2636 6.95424L14.3207 7.74047C14.334 7.72531 14.3486 7.70795 14.3644 7.68922C14.4484 7.58947 14.565 7.45094 14.6842 7.40003C14.8257 7.33957 15.028 7.32791 15.229 7.44848C15.43 7.56905 15.481 7.797 15.3725 7.97336C15.2988 8.09319 15.0297 8.19347 14.712 8.21899C14.4377 8.24102 13.8473 8.39635 13.6988 8.56769C13.6263 8.65127 13.5484 8.7795 13.4717 8.90596L13.4716 8.90597C13.4537 8.93556 13.4358 8.96505 13.418 8.99385L14.4208 9.74681C14.438 9.72053 14.468 9.66726 14.4943 9.6205L14.4944 9.62042L14.4944 9.62036C14.5063 9.59926 14.5174 9.5795 14.5263 9.56415C14.5927 9.44914 14.7933 9.35069 14.9726 9.33017C15.1114 9.31429 15.6411 9.24255 16.0153 9.10224C16.1472 9.05279 16.4114 8.94751 16.6469 8.49262C16.8405 8.11874 16.7647 7.72616 16.6043 7.39453C16.4505 7.07654 16.3034 6.86893 15.6964 6.51399C15.0894 6.15904 14.6743 6.13589 14.3717 6.19123C14.1695 6.22822 13.8497 6.3454 13.6186 6.55029C13.5082 6.6482 13.3548 6.84018 13.2782 6.936L13.2636 6.95424ZM14.2837 10.0781L13.8673 10.9385L13.6041 9.70625L14.2837 10.0781Z" fill="#D179BD"/>
</svg>
