<svg width="24" height="24" viewBox="0 0 24 24" fill="none" xmlns="http://www.w3.org/2000/svg">
<path fill-rule="evenodd" clip-rule="evenodd" d="M8.55484 1.92572C10.1331 1.92572 11.5615 2.50404 12.5935 3.43844C13.4524 2.71567 14.5493 2.28217 15.7445 2.28217C18.498 2.28217 20.7301 4.58279 20.7301 7.42076C20.7301 7.98958 20.6404 8.5368 20.4748 9.04824C21.4097 9.99157 22.0002 11.3789 22.0002 12.9257C22.0002 15.7678 20.0064 18.0717 17.5468 18.0717C17.4199 18.0717 17.2943 18.0656 17.1701 18.0536C17.1436 18.0541 17.117 18.0543 17.0904 18.0543H6.82231C6.70075 18.0658 6.57781 18.0717 6.45368 18.0717C3.99411 18.0717 2.00024 15.7678 2.00024 12.9257C2.00024 11.4645 2.52731 10.1455 3.37375 9.20879C3.04086 8.55612 2.85522 7.82976 2.85522 7.06432C2.85522 4.22635 5.40703 1.92572 8.55484 1.92572ZM22.0003 20.9219V19.9219H14.9383C14.9362 19.3714 14.4893 18.9257 13.9383 18.9257H10.0003C9.44931 18.9257 9.00238 19.3714 9.00034 19.9219H2.00033L2.00033 20.9219H9.00033V21.0743C9.00033 21.6266 9.44805 22.0743 10.0003 22.0743H13.9383C14.4906 22.0743 14.9383 21.6266 14.9383 21.0743V20.9219H22.0003ZM11.4641 5.00446C10.4429 5.07213 9.474 5.33171 8.59316 5.74751L10.1019 8.36442C10.5295 8.18857 10.9868 8.07035 11.4641 8.01939V5.00446ZM13.8377 8.33986C13.406 8.16896 12.9449 8.0565 12.4641 8.01221V5C13.4891 5.05868 14.4624 5.31059 15.3482 5.71992L13.8377 8.33986ZM15.9065 9.87214C15.5733 9.4552 15.175 9.09276 14.727 8.80031L16.2285 6.19588C17.129 6.75837 17.9096 7.49517 18.5234 8.35913L15.9065 9.87214ZM9.21926 8.83624C8.79328 9.12225 8.41365 9.47211 8.09403 9.87214L5.47707 8.35913C6.07832 7.51281 6.8397 6.78851 7.71696 6.23055L9.21926 8.83624ZM4.94913 9.21021L7.54968 10.7137C7.19846 11.3986 7.00024 12.1751 7.00024 12.9979H4.00024C4.00024 11.6278 4.34371 10.338 4.94913 9.21021ZM16.4508 10.7137L19.0514 9.21021C19.6568 10.338 20.0002 11.6278 20.0002 12.9979H17.0002C17.0002 12.1751 16.802 11.3986 16.4508 10.7137ZM14.049 9.34575C13.8098 9.20748 13.5041 9.2894 13.3661 9.52871L12.2098 11.5344C12.1009 11.5092 11.9874 11.4959 11.8708 11.4959C11.0424 11.4959 10.3708 12.1684 10.3708 12.9979C10.3708 13.8275 11.0424 14.5 11.8708 14.5C12.6993 14.5 13.3708 13.8275 13.3708 12.9979C13.3708 12.6495 13.2523 12.3287 13.0535 12.0738L14.2322 10.0294C14.3701 9.7901 14.2881 9.48401 14.049 9.34575Z" fill="#D179BD"/>
</svg>
